<?xml version="1.0" encoding="utf-8"?>
<!-- Generator: Adobe Illustrator 24.0.0, SVG Export Plug-In . SVG Version: 6.00 Build 0)  -->
<svg version="1.1" id="Layer_1" xmlns="http://www.w3.org/2000/svg" xmlns:xlink="http://www.w3.org/1999/xlink" x="0px" y="0px"
	 viewBox="0 0 24 24" style="enable-background:new 0 0 24 24;" xml:space="preserve">
<style type="text/css">
	.st0{fill:#FFFFFF;}
</style>
<path class="st0" d="M17.1,3l4.3,5.1L12,19.8L2.6,8.1L7,3C7,3,17.1,3,17.1,3z M18,1H6.1L0,8l12,15L24,8.1L18,1z M15.5,4.5
	C15,6.2,13.7,7.5,12,8c1.7,0.5,3,1.8,3.5,3.5C16,9.8,17.3,8.5,19,8C17.3,7.5,16,6.2,15.5,4.5z M11,11.1c-0.3,1-1,1.7-2,2
	c1,0.3,1.7,1,2,2c0.3-1,1-1.7,2-2C12,12.8,11.3,12,11,11.1z M7.5,5.6C7.1,6.8,6.2,7.7,5,8.1c1.2,0.4,2.1,1.3,2.5,2.5
	C7.9,9.4,8.8,8.4,10,8.1C8.8,7.7,7.9,6.8,7.5,5.6z"/>
</svg>
