<?xml version="1.0" encoding="utf-8"?>
<!-- Generator: Adobe Illustrator 24.0.0, SVG Export Plug-In . SVG Version: 6.00 Build 0)  -->
<svg version="1.1" id="Layer_1" xmlns="http://www.w3.org/2000/svg" xmlns:xlink="http://www.w3.org/1999/xlink" x="0px" y="0px"
	 viewBox="0 0 24 17.3" style="enable-background:new 0 0 24 17.3;" xml:space="preserve">
<style type="text/css">
	.st0{fill:#FFFFFF;}
</style>
<path class="st0" d="M18,6.3V3.9c-1,0-3.3-0.1-4.5,1.7l-4.2,6.7C8.3,14,6.2,15,3.9,15H0v-1.6h3.9c1.5,0,2.9-0.7,3.6-1.7L11.7,5
	c1.4-2.1,3.7-2.6,6.3-2.6V0l6,3.2L18,6.3z M8.5,7.3l1.1-1.8c-1.2-2-2.9-3.2-5.7-3.2H0v1.6h3.9C6.8,3.9,7.5,5.8,8.5,7.3z M24,14.2
	L18,11v2.4c-3.8,0-4-1-5.6-3.4l-1.1,1.8c1,1.6,2.1,3.2,6.7,3.2v2.4L24,14.2z"/>
</svg>
