<?xml version="1.0" encoding="utf-8"?>
<!-- Generator: Adobe Illustrator 24.0.0, SVG Export Plug-In . SVG Version: 6.00 Build 0)  -->
<svg version="1.1" id="Layer_1" xmlns="http://www.w3.org/2000/svg" xmlns:xlink="http://www.w3.org/1999/xlink" x="0px" y="0px"
	 viewBox="0 0 24 24" style="enable-background:new 0 0 24 24;" xml:space="preserve">
<style type="text/css">
	.st0{fill:#FFFFFF;}
</style>
<path class="st0" d="M2,12c0,1,0.4,1.9,1,2.6l-1.1,0.7l-0.6,0.4C0.5,14.7,0,13.4,0,12c0-3.3,2.7-6,6-6h9V3l6,4l-6,4V8H6
	C3.8,8,2,9.8,2,12z M22.7,8.3l-0.6,0.4L21,9.4c0.6,0.7,1,1.6,1,2.6c0,2.2-1.8,4-4,4H9v-3l-6,4l6,4v-3h9c3.3,0,6-2.7,6-6
	C24,10.6,23.5,9.3,22.7,8.3z"/>
</svg>
